<svg xmlns="http://www.w3.org/2000/svg" xml:space="preserve" viewBox="0 0 940 788"><rect width="100%" height="100%" fill="rgba(255,255,255,0)"/><path fill-rule="evenodd" d="M256 32C132.3 32 32 134.8 32 261.7a229.3 229.3 0 0 0 153.2 217.9c11.2 2.1 15.3-5 15.3-11.1l-.3-39.1c-62.3 13.9-75.5-30.8-75.5-30.8-10.2-26.5-24.9-33.6-24.9-33.6-20.3-14.3 1.5-14 1.5-14 22.5 1.6 34.3 23.7 34.3 23.7 20 35.1 52.4 25 65.2 19.1 2-14.8 7.8-25 14.2-30.7-49.7-5.8-102-25.5-102-113.5 0-25.1 8.7-45.6 23-61.6a84.6 84.6 0 0 1 2.2-60.8s18.8-6.2 61.6 23.5a209.8 209.8 0 0 1 112.2 0c42.8-29.7 61.5-23.5 61.5-23.5a84.6 84.6 0 0 1 2.2 60.8 90.3 90.3 0 0 1 23 61.6c0 88.2-52.4 107.6-102.3 113.3 8 7.1 15.2 21.1 15.2 42.5 0 30.7-.3 55.5-.3 63 0 6.1 4 13.3 15.4 11A228.8 228.8 0 0 0 480 261.7C480 134.8 379.7 32 256 32z" style="is-custom-font:none;font-file-url:none" transform="translate(21.3 -55.6) scale(1.7527)" vector-effect="non-scaling-stroke"/></svg>