<svg xmlns="http://www.w3.org/2000/svg" viewBox="0 0 48 48"><path fill="#f06292" d="M39.9 26a9 9 0 0 0-4 .9l-1-2V23c.1-.8.5-1.8.5-1.9 0 0 0-.4-1-.4-.8 0-1.6.1-1.7.4l-.3 1.3c-.2.8-1.8 3.6-2.7 5.1-.3-.5-.6-1-.6-1.5-.1-.6-.2-1-.1-1.7 0-.7.5-1.8.5-1.9 0 0-.1-.4-1-.4s-1.6.1-1.7.4l-.4 1.3a277.7 277.7 0 0 1-3.6 8l-.3.5c0 .3-.2.5-.3.5v-1.4l1.1-4.3s.2-.5-.5-.8c-.6-.2-.8.2-.9.2v.1s.6-2.9-1.4-2.9c-1.3 0-3 1.4-3.9 2.6l-3 1.7-1.4.7c-2.5-2.7-7-4.5-6.9-8 .1-1.3.5-4.7 8.8-8.8 6.7-3.4 12-2.4 13-.4 1.3 3-2.9 8.4-9.9 9.1-2.6.3-4-.7-4.4-1-.3-.5-.4-.5-.5-.4-.3 0-.1.5 0 .7.2.5 1 1.5 2.5 2 1.3.4 4.4.6 8.2-.9 4.2-1.6 7.5-6.2 6.6-10C28.6 7.2 22 6 16 8a30.5 30.5 0 0 0-10.4 6c-3.2 3-3.8 5.8-3.6 7 .8 4 6.4 6.7 8.6 8.6l-.3.2c-1 .5-5.3 2.8-6.4 5.1-1.2 2.7.2 4.6 1.1 4.9 2.9.8 5.8-.7 7.4-3a7.4 7.4 0 0 0 .7-6.9 519.7 519.7 0 0 1 2.4-1.5c-.2.8-.4 1.7-.5 3-.2 1.5.5 3.4 1.3 4.2.3.4.8.4 1 .4 1 0 1.4-.8 1.9-1.8.6-1 1-2.4 1-2.4s-.6 3.6 1.2 3.6c.6 0 1.3-.9 1.6-1.3l.1-.2 1.7-3.2a73 73 0 0 0 2.2-5l.4 1.8c.2.7.6 1.4 1 2.1a24.2 24.2 0 0 1-1.1 1.4c-1 1-2 2.3-2.1 2.6-.2.4-.1.7.2 1 .2.1.6.2 1 .1a5 5 0 0 0 1.7-.3c.4-.2 1-.4 1.4-.8a3 3 0 0 0 1.3-2.7 5 5 0 0 0-.5-2l.2-.3c1.4-2 2.4-4.1 2.4-4.1l.5 1.7c.1.6.5 1.2.8 1.8a7.5 7.5 0 0 0-2.4 3c-.5 1.5-.1 2.2.6 2.3.4 0 .9 0 1.2-.2.5-.2 1-.4 1.5-.8.9-.6 1.7-1.5 1.6-2.7 0-.6-.1-1.1-.3-1.6 1-.5 2.5-.7 4.2-.5 3.9.4 4.6 2.8 4.5 3.8-.2 1-1 1.6-1.2 1.7l-.4.4c0 .2.2.2.4.1.3 0 2-.8 2.1-2.6 0-2.4-2.2-5-6.1-5zm-29.5 9.9c-1.3 1.4-3 2-3.8 1.5-.8-.5-.5-2.5 1-4 1-1 2.2-1.7 3-2.2l.8-.5.3-.2c.6 2.1 0 4-1.3 5.4zm9.2-6.3c-.4 1.1-1.4 3.9-2 3.7-.4-.1-.7-2.2 0-4.3.3-1 1-2.3 1.5-2.7.7-.8 1.4-1 1.6-.7.3.4-.8 3.3-1 4zm7.6 3.7c-.2 0-.3.1-.4 0s1-1.1 1.4-1.6a52 52 0 0 0 .8-.8c0 1.2-1.2 2-1.8 2.4zm6-1.4c-.2 0-.2-.4.3-1.4.1-.4.5-1 1.3-1.7v.8c0 1.5-1 2-1.7 2.3z"/></svg>